<svg xmlns="http://www.w3.org/2000/svg" viewBox="0 0 675.56 255.66"><defs><style>.cls-1{font-size:155px;fill:#4a4b4c;font-family: Roboto, EuclidCircularA-Bold, Euclid Circular A, -apple-system,BlinkMacSystemFont,Segoe UI,Helvetica,Arial,sans-serif,Apple Color Emoji,Segoe UI Emoji;font-weight:700;letter-spacing:0.06em;}.cls-2{letter-spacing:0.02em;}.cls-3{letter-spacing:0em;}.cls-4{letter-spacing:0.02em;}.cls-5{fill:#1c405c;}.cls-6{fill:#d2a917;}.cls-7{fill:#4a8abc;}.cls-8{fill:#fde771;}</style></defs><title>Asset 3</title><g id="Layer_2" data-name="Layer 2"><g id="Layer_1-2" data-name="Layer 1"><text class="cls-1" transform="translate(200.03 176.97)">P<tspan class="cls-2" x="100.75" y="0">y</tspan><tspan class="cls-3" x="192.82" y="0">P</tspan><tspan class="cls-4" x="283.96" y="0">en</tspan></text><path class="cls-5" d="M32.74.19c5.65,0,11.31,0,17,0A1.2,1.2,0,0,1,51,1.32c.17,1.29.2,2.6.32,3.9.14,1.6.31,3.2.46,4.81.11,1.25.21,2.5.31,3.75.23,2.65.48,5.31.68,8,0,.66-.07,1.34,0,2,.1,1.39.27,2.77.4,4.15.15,1.56.29,3.12.44,4.68.25,2.5.51,5,.76,7.5,0,.11,0,.22,0,.33q.21,3.81.44,7.6c.09,1.46.17,2.91.29,4.37.25,2.83.52,5.66.77,8.5s.5,5.78.74,8.68c.26,3.13.49,6.27.77,9.41.15,1.69.4,3.38.55,5.07.12,1.28.1,2.57.22,3.84.21,2.26.47,4.51.71,6.77,0,.25,0,.5,0,.74.25,2.61.54,5.22.75,7.83.1,1.18,0,2.38.09,3.56.16,2,.43,4,.64,6,0,.22,0,.44,0,.67.25,2.92.52,5.85.75,8.77.07.88,0,1.77.11,2.65.14,1.74.31,3.49.48,5.23,0,.41.16.82.19,1.24.11,1.59.17,3.19.3,4.78.23,2.62.51,5.23.74,7.84.09,1.09.1,2.18.17,3.26.19,2.63.34,5.26.61,7.88.11,1.07-.52,1.8-.88,2.64a30,30,0,0,1-1.71,3.15c-.73,1.3-1.5,2.57-2.2,3.88s-1.31,2.66-2,4-1.42,2.58-2.11,3.88c-.5.94-1,1.9-1.47,2.85a25.26,25.26,0,0,0-1.53,2.85,4,4,0,0,0-.17,2.21,23.17,23.17,0,0,0,1.57,4.79,16.77,16.77,0,0,0,2.88,4,39.31,39.31,0,0,0,4.69,4,25.51,25.51,0,0,0,3.32,1.86,6.58,6.58,0,0,1,1.35.77c.27.26.56.85.44,1.08-.64,1.29-1.42,2.5-2.14,3.75-.39.68-.73,1.38-1.12,2.06-.62,1.08-1.27,2.15-1.88,3.25s-1.05,2-1.59,3c-1.19,2.16-2.42,4.3-3.6,6.46-.94,1.73-1.82,3.51-2.78,5.23-.58,1-1.3,2-1.87,3-.76,1.39-1.43,2.82-2.15,4.22-.28.53-.62,1-.92,1.55s-.7,1.2-1,1.81c-.53,1-1,2-1.58,3s-1.18,2-1.75,3.06-1.1,2-1.63,3c-1,1.81-2,3.64-3,5.45-.51.93-1,1.84-1.54,2.76-.62,1.1-1.22,2.2-1.88,3.28s-1.5,2.38-2.28,3.55a.73.73,0,0,1-.6.25c-.11,0-.2-.32-.3-.49-.57-1-1.14-2-1.7-3.06-1-1.75-1.91-3.51-2.88-5.26-.82-1.48-1.67-2.95-2.49-4.43-.57-1-1.12-2-1.68-3s-1.11-1.94-1.64-2.93c-.73-1.35-1.41-2.73-2.16-4.07s-1.68-2.91-2.51-4.37c-.48-.84-.92-1.7-1.39-2.56-.32-.59-.65-1.17-1-1.76l-1.72-3c-.51-.92-1-1.84-1.52-2.77-.82-1.52-1.6-3.07-2.44-4.57-.75-1.35-1.58-2.66-2.34-4-.61-1.07-1.15-2.18-1.73-3.26-.5-.91-1-1.8-1.53-2.71-.81-1.48-1.6-3-2.41-4.48a8.86,8.86,0,0,0-.8-1.28,1.11,1.11,0,0,1,.41-1.92c1.24-.66,2.45-1.38,3.68-2.05a22,22,0,0,0,6.12-5.17,13.29,13.29,0,0,0,2.38-4,42.61,42.61,0,0,0,1.49-4.78,2.7,2.7,0,0,0-.42-1.6c-.66-1.41-1.38-2.8-2.11-4.18-.65-1.21-1.36-2.39-2-3.59C9,168.69,8.18,167,7.3,165.41,6.52,164,5.71,162.54,5,161.09s-1.41-2.81-2.08-4.23A4.62,4.62,0,0,1,2.19,155c.05-1.67.29-3.33.46-5,.06-.5.17-1,.22-1.5.26-3.05.52-6.09.76-9.14.13-1.64.16-3.28.3-4.92.23-2.61.53-5.22.76-7.84.1-1.19.08-2.4.16-3.6q.27-4,.6-8.07c.13-1.72.29-3.43.47-5.14.2-2,.46-4,.65-6,.1-1.1.07-2.21.15-3.31.13-1.71.3-3.41.47-5.11,0-.46.18-.91.21-1.36.12-2,.18-3.91.3-5.86s.32-4,.48-6c.12-1.5.2-3,.36-4.51.19-1.9.44-3.79.66-5.69,0-.24,0-.49,0-.74.24-2.77.51-5.54.74-8.32.09-1.08.08-2.18.16-3.26.2-2.92.41-5.83.63-8.75.13-1.79.25-3.58.44-5.36.21-2,.52-4,.74-6,.08-.66,0-1.35,0-2,.22-2.5.47-5,.71-7.48,0,0,0-.09,0-.14.1-1.85.16-3.72.32-5.57.2-2.32.49-4.63.73-6.95,0-.25,0-.5,0-.74.26-2.79.53-5.57.76-8.36.1-1.13.1-2.26.17-3.4.08-1.32.22-2.64.26-4,0-.58.18-.77.78-.77C21.38.2,27.06.19,32.74.19Z"/><path class="cls-6" d="M74.14,0c4.36,0,8.71-.1,13.06,0,4.19.13,8.39.41,12.56.79,2.59.24,5.15.71,7.71,1.18a109.67,109.67,0,0,1,31,10.4A70.92,70.92,0,0,1,153,22.21a86.08,86.08,0,0,1,7.62,7.54,63.35,63.35,0,0,1,12.05,20.69,79.48,79.48,0,0,1,3.84,16.33A91,91,0,0,1,177.17,81a70.31,70.31,0,0,1-7.69,31,66.6,66.6,0,0,1-12.7,17.08,82.6,82.6,0,0,1-11.62,9.43,92.9,92.9,0,0,1-27.63,12.59,126.5,126.5,0,0,1-14.24,3.14,126.37,126.37,0,0,1-14.3,1.1c-5.58.17-11.17,0-16.76.05-.48,0-.72-.08-.75-.64-.15-2.43-.34-4.86-.53-7.29s-.38-4.81-.57-7.22-.33-4.54-.5-6.82c-.23-3.1-.47-6.2-.7-9.3-.18-2.31-.34-4.63-.51-6.95,0-.49-.07-1-.14-1.47s.15-.66.67-.66c6.7,0,13.42.13,20.12,0,10-.22,19.57-2.15,28.49-6.77a33.94,33.94,0,0,0,15.28-14.92,35.53,35.53,0,0,0,2.43-24.47,31.65,31.65,0,0,0-14-19.1,49.32,49.32,0,0,0-16.84-6.9,66.48,66.48,0,0,0-10.91-1.68c-7-.34-14-.27-21-.35-3.41,0-6.82,0-10.23,0-.56,0-.73-.17-.76-.69-.12-1.86-.26-3.71-.4-5.56-.29-3.81-.59-7.61-.87-11.42-.26-3.64-.51-7.28-.78-10.91C59.54,9.13,59.28,6,59,2.91c-.06-.73-.09-1.47-.18-2.2-.06-.51,0-.69.62-.69C64.36.05,69.25,0,74.14,0Z"/><path class="cls-7" d="M33,114.6H18.47c-1.31,0-1.37-.13-1.24-1.42.22-2.44.35-4.89.57-7.32s.49-4.63.75-6.94l0-.34c.19-2.84.37-5.68.57-8.52.16-2.36.31-4.73.5-7.09.27-3.33.56-6.65.85-10,.21-2.55.44-5.09.64-7.63.16-2,.26-4.09.43-6.13.24-2.87.52-5.74.78-8.61.19-2,.39-4,.56-6,.19-2.23.34-4.47.51-6.71.24-3.17.44-6.34.71-9.51s.62-6.57.92-9.86c.16-1.72.27-3.45.43-5.18a3.83,3.83,0,0,1,.26-1.16.69.69,0,0,1,.56-.31q6.79,0,13.6,0a.92.92,0,0,1,.58.63c.27,3.84.45,7.69.74,11.53.25,3.35.63,6.68.91,10,.22,2.61.35,5.24.58,7.85.2,2.2.53,4.4.75,6.6.15,1.46.19,2.93.31,4.39.25,3,.53,6,.77,9,.17,2.25.26,4.5.45,6.74.21,2.45.52,4.89.74,7.34.11,1.22.1,2.45.18,3.68q.27,3.83.57,7.65c.25,3.19.52,6.38.78,9.56.14,1.73.25,3.46.43,5.18.22,2.14.55,4.26.74,6.4.17,1.89.24,3.78.28,5.68,0,.16-.49.49-.76.49-4.44,0-8.88,0-13.32,0Z"/><path class="cls-7" d="M33,149.18c-5.92,0-11.84,0-17.77,0-.71,0-1-.25-.91-.94.26-2.72.53-5.44.77-8.15.1-1.18.06-2.37.17-3.55.17-1.78.42-3.56.59-5.35.11-1.08.13-2.18.19-3.27a5.53,5.53,0,0,1,.2-2c.17-.37.88-.5,1.36-.7a1.62,1.62,0,0,1,.54,0q15.14,0,30.29,0c1.52,0,1.41.23,1.52,1.5.2,2.11.16,4.24.33,6.35s.52,4,.72,6.06c.13,1.2.1,2.41.2,3.61.13,1.72.3,3.44.5,5.16.12,1,0,1.25-1.06,1.25Z"/><path class="cls-7" d="M27.62,210.25c0,3.47,0,6.95,0,10.43a2.78,2.78,0,0,1-.3.88c-.28-.2-.64-.33-.81-.6-1-1.63-2-3.28-3-5s-1.88-3.59-2.86-5.35-2.13-3.61-3.17-5.43c-.68-1.21-1.38-2.41-2-3.67a1.8,1.8,0,0,1,.4-2.18,61.92,61.92,0,0,0,4.67-5.32,22.33,22.33,0,0,0,3.52-6.69c.42-1.34.8-2.7,1.23-4a.71.71,0,0,1,.54-.35q7,0,14.07,0a.91.91,0,0,1,.65.5c.49,1.51.85,3.06,1.41,4.53a20.32,20.32,0,0,0,1.73,3.38,53.57,53.57,0,0,0,3.3,4.93,39.32,39.32,0,0,0,3.18,3.28,1.58,1.58,0,0,1,.17,2c-.76,1.51-1.57,3-2.41,4.49s-1.78,3-2.63,4.53c-.76,1.36-1.43,2.77-2.18,4.14-.5.91-1.07,1.77-1.6,2.66-.65,1.11-1.27,2.25-2,3.35-.16.26-.54.39-.82.57a2.76,2.76,0,0,1-.31-.79c0-.88,0-1.76,0-2.65,0-6,0-12.11,0-18.17,0-.6-.18-.74-.76-.74q-4.71,0-9.42,0c-.62,0-.74.2-.74.77C27.63,203.25,27.62,206.75,27.62,210.25Z"/><path class="cls-7" d="M33.09,159.85c4.65,0,9.29,0,13.94,0,.32,0,.88.12.92.28a2.33,2.33,0,0,1-.08,1.41c-.71,1.51-1.5,3-2.31,4.46-.9,1.65-1.84,3.27-2.77,4.91l0,.05c-.11,1.5-1.2,1.27-2.2,1.27q-7.84,0-15.68,0a1.44,1.44,0,0,1-1.57-1c-.92-2-2.06-3.84-3.11-5.76q-1.1-2-2.18-4a1,1,0,0,1,1-1.61Z"/><path class="cls-8" d="M145.73,74.28a57.17,57.17,0,0,0-1.13-7,38.82,38.82,0,0,0-4.76-11.72,41.19,41.19,0,0,0-9.15-10.49,48.8,48.8,0,0,0-14.62-8.33c-1.8-.65-3.58-1.36-5.41-1.87s-3.86-.92-5.81-1.32c-1.71-.35-3.44-.68-5.17-.94-1.57-.23-3.16-.37-4.74-.54-1.16-.13-2.32-.26-3.48-.35-.4,0-.8.06-1.2.06-6.4,0-12.79,0-19.19,0-.57,0-.69-.11-.71-.74-.06-1.75-.28-3.5-.43-5.25-.07-.85-.12-1.69-.19-2.54-.21-2.75-.44-5.5-.65-8.25-.14-1.86-.27-3.72-.36-5.57,0-.12.32-.36.49-.36,1.91,0,3.82,0,5.73,0,3.25,0,6.51-.1,9.76,0,4.18.16,8.35.46,12.52.77q3,.23,5.91.69c2.13.33,4.28.67,6.36,1.21,4,1,7.94,2.11,11.84,3.4A90,90,0,0,1,130.89,19a60.36,60.36,0,0,1,11.76,6.91,92.5,92.5,0,0,1,8.65,7.38A53.61,53.61,0,0,1,158,41.49a50.71,50.71,0,0,1,5.84,11.86c.72,2.17,1.48,4.34,2.1,6.54.37,1.34.52,2.75.76,4.13.31,1.74.63,3.49.89,5.24.12.86.09,1.74.16,2.61.12,1.49.31,3,.38,4.47a31.24,31.24,0,0,1,0,4c-.19,2.48-.5,5-.76,7.43-.15,1.33-.23,2.68-.46,4a29.16,29.16,0,0,1-.79,3c-.38,1.39-.76,2.78-1.19,4.15a55.26,55.26,0,0,1-6.13,13.12,57.6,57.6,0,0,1-8,10.08,71.35,71.35,0,0,1-8.22,7,78.38,78.38,0,0,1-15.79,8.91c-2.27.95-4.58,1.81-6.88,2.69-1.33.5-2.66,1-4,1.42-1.55.45-3.14.78-4.72,1.16-2,.47-3.89,1-5.87,1.38-2.51.43-5,.73-7.58,1s-5,.34-7.48.42c-3.22.1-6.44.12-9.67.14a.74.74,0,0,1-.51-.52q-.51-5.82-.94-11.66c-.17-2.33-.29-4.67-.44-7a16.52,16.52,0,0,0-.16-2.34c-.13-.63.18-.58.59-.58,4.3,0,8.62.13,12.92,0a70.77,70.77,0,0,0,9.07-.94,88.56,88.56,0,0,0,9.19-2.12,49.33,49.33,0,0,0,7-2.54c3-1.36,6-2.85,8.88-4.47a34.77,34.77,0,0,0,8.45-7,39.69,39.69,0,0,0,6.76-9.56,34.83,34.83,0,0,0,3-8.12c.49-2.43.86-4.89,1.28-7.33,0-.26.14-.52.18-.79A34.64,34.64,0,0,0,145.73,74.28Z"/></g></g></svg>